<svg width="20" height="20" viewBox="0 0 20 20" fill="none" xmlns="http://www.w3.org/2000/svg">
<path d="M10 14.1666C13.0517 14.1666 15.7209 15.4791 17.1725 17.4375L15.6375 18.1633C14.4559 16.7633 12.3725 15.8333 10 15.8333C7.62754 15.8333 5.5442 16.7633 4.36254 18.1633L2.82837 17.4366C4.28004 15.4783 6.94837 14.1666 10 14.1666ZM10 1.66663C11.1051 1.66663 12.1649 2.10561 12.9463 2.88701C13.7277 3.66842 14.1667 4.72822 14.1667 5.83329V8.33329C14.1666 9.40701 13.7521 10.4393 13.0095 11.2148C12.2669 11.9903 11.2536 12.4492 10.1809 12.4958L10 12.5C8.89497 12.5 7.83516 12.061 7.05376 11.2796C6.27236 10.4982 5.83337 9.43836 5.83337 8.33329V5.83329C5.83343 4.75957 6.24799 3.72733 6.99058 2.95181C7.73318 2.1763 8.74649 1.71739 9.8192 1.67079L10 1.66663ZM10 3.33329C9.36236 3.33326 8.74877 3.5769 8.28482 4.01436C7.82086 4.45183 7.54161 5.05005 7.5042 5.68663L7.50004 5.83329V8.33329C7.49941 8.98405 7.75255 9.6094 8.20568 10.0765C8.6588 10.5435 9.2762 10.8155 9.92667 10.8346C10.5771 10.8537 11.2094 10.6184 11.6892 10.1787C12.1689 9.73906 12.4583 9.12963 12.4959 8.47996L12.5 8.33329V5.83329C12.5 5.17025 12.2366 4.53437 11.7678 4.06553C11.299 3.59669 10.6631 3.33329 10 3.33329V3.33329Z" fill="#828282"/>
</svg>
